<svg xmlns="http://www.w3.org/2000/svg" xmlns:xlink="http://www.w3.org/1999/xlink" viewBox="0 0 68.73 68.1"><defs><style>.cls-1{isolation:isolate;}.cls-2{fill:#615f5f;opacity:0.6;mix-blend-mode:multiply;}.cls-3{fill:none;stroke-miterlimit:10;stroke:url(#Gradiente_sem_nome_207);}.cls-4{fill:#2584b6;}.cls-5{fill:#573f43;}.cls-6{fill:#ce9f72;}.cls-7{fill:#bc8e69;}.cls-8{fill:#dee2ee;}.cls-9{fill:#d1d6e3;}.cls-10{fill:#6b6f7e;}.cls-11{fill:#616374;}.cls-12{fill:#d8b07f;}.cls-13{fill:#444451;}.cls-14{fill:#575a69;}</style><radialGradient id="Gradiente_sem_nome_207" cx="33.42" cy="33.42" r="33.42" gradientUnits="userSpaceOnUse"><stop offset="0.67" stop-color="#fff"/><stop offset="1" stop-color="#f2f3f4"/></radialGradient></defs><title>Proposta Site - 9 - Outubro</title><g class="cls-1"><g id="Camada_1" data-name="Camada 1"><circle class="cls-2" cx="35.81" cy="35.18" r="32.92"/><circle class="cls-3" cx="33.42" cy="33.42" r="32.92"/><circle class="cls-4" cx="33.42" cy="33.42" r="30.96"/><path class="cls-5" d="M48.28,37.41a1.56,1.56,0,0,1-.9,1.4A33.15,33.15,0,0,1,33.84,41.4a33.06,33.06,0,0,1-13.53-2.59,1.52,1.52,0,0,1-.9-1.4c.11-14.5,2.76-27.16,14.43-27.16S48.17,22.91,48.28,37.41Z"/><path class="cls-6" d="M39.16,39.76V36.08H28.52v3.68A2.27,2.27,0,0,1,27,41.92l-7.24,2.41a3.8,3.8,0,0,0-2.59,3.61V52.8a1.52,1.52,0,0,0,1.51,1.52H49a1.52,1.52,0,0,0,1.52-1.52V47.94A3.81,3.81,0,0,0,48,44.33l-7.24-2.41A2.28,2.28,0,0,1,39.16,39.76Z"/><path class="cls-7" d="M28.52,39.76a2.27,2.27,0,0,1-1.39,2.09c8.52,1.45,12-4.63,12-4.63h0V36.08H28.52Z"/><path class="cls-8" d="M48,44.33l-5.92-2A18.41,18.41,0,0,1,33.84,49a18.47,18.47,0,0,1-8.2-6.64l-5.92,2a3.8,3.8,0,0,0-2.59,3.61V52.8a1.52,1.52,0,0,0,1.52,1.52H49a1.52,1.52,0,0,0,1.52-1.52V47.94A3.81,3.81,0,0,0,48,44.33Z"/><path class="cls-9" d="M22.31,49.63,18.1,45.41a3.78,3.78,0,0,0-1,2.53V52.8a1.52,1.52,0,0,0,1.51,1.52H23.2V51.78A3,3,0,0,0,22.31,49.63Z"/><path class="cls-9" d="M45.37,49.63l4.22-4.22a3.83,3.83,0,0,1,1,2.53V52.8A1.52,1.52,0,0,1,49,54.32H44.48V51.78A3,3,0,0,1,45.37,49.63Z"/><path class="cls-9" d="M24.42,43.26c3,4.14,6.62,6.43,8.95,7.18l.47.16.47-.16a19.84,19.84,0,0,0,9-7.18l.27-.4-1.5-.5A18.41,18.41,0,0,1,33.84,49a18.47,18.47,0,0,1-8.2-6.64l-1.5.5Z"/><path class="cls-10" d="M24.09,26.21h-.88a1.53,1.53,0,0,0-1.53,1.52v3a1.52,1.52,0,0,0,1.55,1.52l1.31,0Z"/><path class="cls-11" d="M23.21,26.21h0v6h0l1.31,0-.45-6Z"/><path class="cls-10" d="M43.59,26.21h.89A1.52,1.52,0,0,1,46,27.73v3a1.52,1.52,0,0,1-1.55,1.52l-1.31,0Z"/><path class="cls-11" d="M44.48,26.21h0v6h0l-1.31,0,.45-6Z"/><path class="cls-12" d="M24,19.36v3.28c0,1.36.06,2.72.16,4.08l.44,5.69a4.54,4.54,0,0,0,1.93,3.39L31.08,39a4.78,4.78,0,0,0,2.76.87h0A4.81,4.81,0,0,0,36.61,39l4.58-3.21a4.58,4.58,0,0,0,1.94-3.39l.43-5.69c.11-1.36.16-2.72.16-4.08V19.36Z"/><path class="cls-6" d="M43.66,19.36H24v3.28c0,.42,0,.85,0,1.27h0c0,.5,0,1,.06,1.52h0c0,.43,0,.86.07,1.29l.44,5.69a4.54,4.54,0,0,0,1.93,3.39L31.08,39a4.78,4.78,0,0,0,2.76.87c-1.22,0-2.56-2.1-3.4-3.69a7.59,7.59,0,0,1-.87-3.4l-.13-6.88a1.11,1.11,0,0,1,.93-1.1,40.91,40.91,0,0,0,9.15-2.68,7.42,7.42,0,0,0,3.65,3.23l.24.08h.23l.06-1.52Z"/><path class="cls-5" d="M23.2,18.6v5.32a38.42,38.42,0,0,0,17-3.82,6.5,6.5,0,0,0,3.45,3.82h.82V18.6Z"/><path class="cls-13" d="M44.45,32.25l-1.3,0c-.58,1.05-2.32,2.78-7.5,2.78v1.51c6.92,0,8.7-3,9.15-4.31A1.34,1.34,0,0,1,44.45,32.25Z"/><path class="cls-14" d="M35,36.84h-.76a1.14,1.14,0,0,1-1.14-1.14h0a1.14,1.14,0,0,1,1.14-1.14H35a1.14,1.14,0,0,1,1.14,1.14h0A1.14,1.14,0,0,1,35,36.84Z"/></g></g></svg>