<svg xmlns="http://www.w3.org/2000/svg" xmlns:xlink="http://www.w3.org/1999/xlink" viewBox="0 0 68.73 68.1"><defs><style>.cls-1{isolation:isolate;}.cls-2{fill:#615f5f;opacity:0.6;mix-blend-mode:multiply;}.cls-3{fill:none;stroke-miterlimit:10;stroke:url(#Gradiente_sem_nome_207);}.cls-4{fill:url(#Gradiente_sem_nome_45);}.cls-5{fill:#5c2472;}</style><radialGradient id="Gradiente_sem_nome_207" cx="33.42" cy="33.42" r="33.42" gradientUnits="userSpaceOnUse"><stop offset="0.67" stop-color="#fff"/><stop offset="1" stop-color="#f2f3f4"/></radialGradient><radialGradient id="Gradiente_sem_nome_45" cx="33.42" cy="33.42" r="30.96" gradientUnits="userSpaceOnUse"><stop offset="0.43" stop-color="#fff"/><stop offset="1" stop-color="#dfe0e2"/></radialGradient></defs><title>Proposta Site - 9 - Outubro</title><g class="cls-1"><g id="Camada_1" data-name="Camada 1"><circle class="cls-2" cx="35.81" cy="35.18" r="32.92"/><circle class="cls-3" cx="33.42" cy="33.42" r="32.92"/><circle class="cls-4" cx="33.42" cy="33.42" r="30.96"/><path class="cls-5" d="M42.4,47.12a3.27,3.27,0,0,0-3.24,3.32,3.24,3.24,0,1,0,3.24-3.32Zm0,5a1.6,1.6,0,0,1-1.57-1.67A1.58,1.58,0,1,1,42.4,52.1Z"/><path class="cls-5" d="M24.73,47.12a3.26,3.26,0,0,0-3.24,3.32,3.32,3.32,0,0,0,3.24,3.32A3.27,3.27,0,0,0,28,50.44,3.32,3.32,0,0,0,24.73,47.12Zm0,5a1.6,1.6,0,0,1-1.58-1.67,1.65,1.65,0,0,1,1.58-1.66,1.59,1.59,0,0,1,1.57,1.66A1.65,1.65,0,0,1,24.73,52.1Z"/><path class="cls-5" d="M50.2,14.76l-1.29,5.06H16.35l6,17.81a4.11,4.11,0,0,0-3.52,4.18A4.2,4.2,0,0,0,23,46.13H45.55V44.55H23a2.54,2.54,0,0,1-2.49-2.66A2.6,2.6,0,0,1,23,39.23H45.63l5.89-22.81h3.32V14.76ZM44.39,37.58H24.07l-5.4-16.1H48.46l-4.07,16.1Z"/><rect class="cls-5" x="26.88" y="25.38" width="1.66" height="9.37"/><rect class="cls-5" x="32.78" y="25.38" width="1.66" height="9.37"/><rect class="cls-5" x="38.67" y="25.38" width="1.66" height="9.37"/></g></g></svg>