<?xml version="1.0" encoding="UTF-8" standalone="no"?>
<svg
   xmlns:dc="http://purl.org/dc/elements/1.1/"
   xmlns:cc="http://creativecommons.org/ns#"
   xmlns:rdf="http://www.w3.org/1999/02/22-rdf-syntax-ns#"
   xmlns:svg="http://www.w3.org/2000/svg"
   xmlns="http://www.w3.org/2000/svg"
   xmlns:xlink="http://www.w3.org/1999/xlink"
   xmlns:sodipodi="http://sodipodi.sourceforge.net/DTD/sodipodi-0.dtd"
   xmlns:inkscape="http://www.inkscape.org/namespaces/inkscape"
   inkscape:version="1.0 (4035a4fb49, 2020-05-01)"
   height="74.599991"
   width="75.300034"
   sodipodi:docname="medico_icon.svg"
   xml:space="preserve"
   viewBox="0 0 75.300035 74.599993"
   y="0px"
   x="0px"
   id="Camada_1"
   version="1.1"><metadata
   id="metadata315"><rdf:RDF><cc:Work
       rdf:about=""><dc:format>image/svg+xml</dc:format><dc:type
         rdf:resource="http://purl.org/dc/dcmitype/StillImage" /><dc:title></dc:title></cc:Work></rdf:RDF></metadata><defs
   id="defs313" /><sodipodi:namedview
   inkscape:current-layer="Camada_1"
   inkscape:window-maximized="1"
   inkscape:window-y="-8"
   inkscape:window-x="-8"
   inkscape:cy="181.46421"
   inkscape:cx="397.1394"
   inkscape:zoom="0.61379972"
   showgrid="false"
   id="namedview311"
   inkscape:window-height="1018"
   inkscape:window-width="1920"
   inkscape:pageshadow="2"
   inkscape:pageopacity="0"
   guidetolerance="10"
   gridtolerance="10"
   objecttolerance="10"
   borderopacity="1"
   bordercolor="#666666"
   pagecolor="#ffffff" />
<style
   id="style2"
   type="text/css">
	.st0{fill:#5B256F;}
	.st1{opacity:0.6;fill-rule:evenodd;clip-rule:evenodd;fill:#625C5E;}
	.st2{fill-rule:evenodd;clip-rule:evenodd;fill:none;stroke:url(#SVGID_1_);stroke-miterlimit:10;}
	.st3{fill-rule:evenodd;clip-rule:evenodd;fill:#2C85B4;}
	.st4{clip-path:url(#SVGID_3_);}
	.st5{fill:#643942;}
	.st6{fill:#E09E6E;}
	.st7{fill:#CD8C64;}
	.st8{fill:#DBDFED;}
	.st9{fill:#CFD4E2;}
	.st10{fill:#686D80;}
	.st11{fill:#5F5F74;}
	.st12{fill:#E7AF7D;}
	.st13{fill:#483F51;}
	.st14{fill:#575568;}
	.st15{fill:#2C85B4;}
	.st16{fill-rule:evenodd;clip-rule:evenodd;fill:none;stroke:url(#SVGID_4_);stroke-miterlimit:10;}
	.st17{clip-path:url(#SVGID_6_);fill:#B4B4B4;}
	.st18{clip-path:url(#SVGID_6_);fill:#F1BB7D;}
	.st19{clip-path:url(#SVGID_6_);fill:#FDD299;}
	.st20{clip-path:url(#SVGID_6_);fill:#32B5AE;}
	.st21{clip-path:url(#SVGID_6_);}
	.st22{fill:#4EBBB8;}
	.st23{clip-path:url(#SVGID_6_);fill:#FFFFFF;}
	.st24{fill:#EEF3F7;}
	.st25{clip-path:url(#SVGID_6_);fill:#D9DBDB;}
	.st26{clip-path:url(#SVGID_6_);fill:#676767;}
	.st27{clip-path:url(#SVGID_6_);fill:#117A87;}
	.st28{clip-path:url(#SVGID_6_);fill:#EBECED;}
	.st29{clip-path:url(#SVGID_6_);fill:#4EBBB8;}
	.st30{clip-path:url(#SVGID_6_);fill:#4E4D4D;}
	.st31{fill:#0C6774;}
	.st32{fill:#117A87;}
	.st33{fill:#4E4D4D;}
	.st34{fill:#FCFBFC;}
	.st35{fill:none;stroke:#FFFFFF;stroke-miterlimit:10;}
</style>



<g
   transform="translate(-776.19999,-428.9)"
   inkscape:export-ydpi="100"
   inkscape:export-xdpi="100"
   id="g150">
	<circle
   id="circle65"
   r="36.099998"
   cy="467.39999"
   cx="815.40002"
   class="st1" />
	<circle
   id="circle67"
   r="33.900002"
   cy="465.70001"
   cx="812.40002"
   class="st15" />
	<radialGradient
   gradientUnits="userSpaceOnUse"
   r="36.567902"
   cy="465.4743"
   cx="812.75177"
   id="SVGID_4_">
		<stop
   id="stop69"
   style="stop-color:#FFFFFF"
   offset="0.6716" />
		<stop
   id="stop71"
   style="stop-color:#F0F0F2"
   offset="1" />
	</radialGradient>
	<circle
   style="stroke:url(#SVGID_4_)"
   id="circle74"
   r="36.099998"
   cy="465.5"
   cx="812.79999"
   class="st16" />
	<g
   id="g148">
		<defs
   id="defs77">
			<circle
   r="33.900002"
   cy="465.70001"
   cx="812.40002"
   id="SVGID_5_" />
		</defs>
		<clipPath
   id="SVGID_6_">
			<use
   height="100%"
   width="100%"
   y="0"
   x="0"
   id="use79"
   style="overflow:visible"
   xlink:href="#SVGID_5_" />
		</clipPath>
		<path
   id="path82"
   clip-path="url(#SVGID_6_)"
   d="m 807.1,464.3 c 3.6,0 7.1,0 10.7,0 l 0.1,0.7 -5.2,7.9 -5.6,-8 v -0.6 z"
   class="st17" />
		<path
   id="path84"
   clip-path="url(#SVGID_6_)"
   d="m 807.1,462.3 -0.1,4.5 -7.6,4.1 V 486 h 12.7 12.7 v -15.1 l -7,-4.4 -0.4,-4.5 -10.3,0.3 z"
   class="st18" />
		<path
   id="path86"
   clip-path="url(#SVGID_6_)"
   d="m 803.7,449.3 c 0,0 -0.4,-1 -1.6,-0.5 -1.2,0.5 0.1,5.2 0.5,5.8 0.4,0.7 1.2,0.2 1.4,0.2 0.4,2.8 0.4,4.7 1.5,5.9 1.1,1.1 3.5,3.4 4.8,4.2 0.9,0.2 1.5,0.3 2.1,0.3 0.6,0 1.3,-0.1 2.1,-0.3 1.3,-0.8 3.7,-3.1 4.8,-4.2 1.1,-1.2 1.2,-3.1 1.5,-5.9 0.3,0 1,0.4 1.4,-0.2 0.4,-0.7 1.7,-5.4 0.5,-5.8 -1.2,-0.5 -1.6,0.5 -1.6,0.5 0,0 1.2,-3.7 -0.9,-7.3 -1.4,-2.5 -4.6,-3.8 -7.9,-3.9 -3.3,0.1 -6.5,1.4 -7.9,3.9 -1.9,3.6 -0.7,7.3 -0.7,7.3 z"
   class="st19" />
		<path
   id="path88"
   clip-path="url(#SVGID_6_)"
   d="m 803.4,468.1 1.8,-0.7 1.5,-1.3 5.1,3.9 h 1.3 l 5.2,-3.9 3.3,2 5.7,9.7 -4.5,24.4 c -3.3,0.9 -6.7,1.4 -10.2,1.4 -2.9,0 -5.7,-0.3 -8.4,-0.9 l -8.1,-24.1 z"
   class="st20" />
		<g
   id="g94"
   clip-path="url(#SVGID_6_)"
   class="st21">
			<path
   id="path90"
   d="m 819.8,466.8 -2.1,-2.6 -4.7,5.7 4,4.5 z"
   class="st22" />
			<path
   id="path92"
   d="m 805,466.8 2.1,-2.5 4.7,5.7 -4.2,4.4 z"
   class="st22" />
		</g>
		<path
   id="path96"
   clip-path="url(#SVGID_6_)"
   d="m 805,466.8 -13.8,4.5 c -0.6,0.2 -0.9,0.7 -1,1.2 l -4.1,20.5 c 2.7,2.6 5.8,4.8 9.2,6.5 l 2,-6.6 c 0,-0.1 0.1,-0.1 0.2,-0.1 0.1,0 0.1,0.1 0.1,0.2 l 0.3,7.7 c 4.4,1.8 9.3,2.8 14.4,2.8 v -2.6 z"
   class="st23" />
		<g
   id="g102"
   clip-path="url(#SVGID_6_)"
   class="st21">
			<path
   id="path98"
   d="m 805,466.8 -1.6,0.5 -4.2,7.1 5.3,0.2 -3.2,1.8 11.1,24.5 z"
   class="st24" />
			<path
   id="path100"
   d="m 819.8,466.8 13.8,4.4 c 0.6,0.2 0.9,0.7 1,1.2 l 4.1,20.5 c -2.7,2.6 -5.8,4.8 -9.2,6.5 l -2,-6.6 c 0,-0.1 -0.1,-0.1 -0.2,-0.1 -0.1,0 -0.1,0.1 -0.1,0.2 l -0.3,7.7 c -4.4,1.8 -9.3,2.8 -14.4,2.8 v 0 -2.6 z"
   class="st24" />
		</g>
		<path
   id="path104"
   clip-path="url(#SVGID_6_)"
   d="m 819.8,466.8 0.9,0.3 4.9,7.4 -5.3,0.2 3.2,1.8 -11.1,24.5 7.4,-34.2 v 0 z"
   class="st23" />
		<path
   id="path106"
   clip-path="url(#SVGID_6_)"
   d="m 814,500.8 c -0.5,0 -0.8,0.4 -0.8,0.8 0,0.5 0.4,0.8 0.8,0.8 0.5,0 0.8,-0.4 0.8,-0.8 0,-0.5 -0.4,-0.8 -0.8,-0.8 z"
   class="st25" />
		<path
   id="path108"
   clip-path="url(#SVGID_6_)"
   d="m 820.2,450.4 h 0.8 l 0.3,-0.9 0.8,-0.8 c 0.5,-3.8 0.7,-9.7 -3.1,-9.5 0,0 -0.3,-4.3 -7.1,-3.5 -6.8,0.8 -9.9,5.2 -9.5,8.9 0.4,3.7 0.2,4.1 0.2,4.1 l 0.8,0.8 0.1,1.1 h 0.7 c 0,0 0.2,-1.4 0.4,-2 0.2,-0.6 0.1,-1.9 0.1,-1.9 0,0 8,0.5 10.2,-2.2 1.3,-1.7 4.4,-4.7 4.6,-0.6 0,1.2 -0.4,3 0.5,4.4 0.7,1.1 0.2,2.1 0.2,2.1 z"
   class="st26" />
		<path
   id="path110"
   clip-path="url(#SVGID_6_)"
   d="m 812.4,500.9 2.2,-10 -1.5,-19.7 0.8,-0.3 -0.9,-1 h -1.3 l -0.9,0.9 0.8,0.4 -1.4,19.9 2.2,9.8 z"
   class="st27" />
		<path
   id="path112"
   clip-path="url(#SVGID_6_)"
   d="m 813.9,500.8 c -0.4,0 -0.8,0.3 -0.8,0.8 0,0.4 0.3,0.8 0.8,0.8 0.4,0 0.8,-0.3 0.8,-0.8 0,-0.5 -0.4,-0.8 -0.8,-0.8 z"
   class="st23" />
		<path
   id="path114"
   clip-path="url(#SVGID_6_)"
   d="m 825.9,488.1 c -1.5,-0.3 -2.5,-1.7 -2.2,-3.2 0.3,-1.5 1.7,-2.5 3.2,-2.2 1.5,0.3 2.5,1.7 2.2,3.2 -0.3,1.5 -1.7,2.5 -3.2,2.2 z"
   class="st23" />
		<path
   id="path116"
   clip-path="url(#SVGID_6_)"
   d="m 825.9,488 c -1.4,-0.2 -2.3,-1.6 -2.1,-3 0.2,-1.4 1.6,-2.3 3,-2.1 1.4,0.2 2.3,1.6 2.1,3 -0.2,1.4 -1.6,2.3 -3,2.1 z"
   class="st27" />
		<path
   id="path118"
   clip-path="url(#SVGID_6_)"
   d="m 826.1,486.8 c -0.8,-0.1 -1.3,-0.9 -1.2,-1.7 0.1,-0.8 0.9,-1.3 1.7,-1.2 0.8,0.1 1.3,0.9 1.2,1.7 -0.1,0.8 -0.9,1.4 -1.7,1.2 z"
   class="st28" />
		<path
   id="path120"
   clip-path="url(#SVGID_6_)"
   d="m 826.3,484.2 0.6,0.1 0.3,-2 -0.6,-0.1 z"
   class="st23" />
		<path
   id="path122"
   clip-path="url(#SVGID_6_)"
   d="m 805.3,488.7 1.2,-0.2 c 0.5,-0.1 0.9,-0.4 1.2,-0.8 0.3,-0.4 0.4,-0.9 0.3,-1.4 l -1.4,-7 c -0.5,-2.6 -2.6,-4 -4.9,-4.3 -0.9,-0.1 -1.8,-0.1 -2.8,0.1 -0.9,0.2 -1.8,0.5 -2.6,1 -2.1,1.2 -3.4,3.2 -2.9,5.8 l 1.4,7 c 0.1,0.5 0.4,0.9 0.8,1.2 v 0 c 0.4,0.3 0.9,0.4 1.4,0.3 l 1.2,-0.2 -0.1,-0.5 -1.2,0.2 c -0.4,0.1 -0.7,0 -1,-0.2 v 0 c -0.3,-0.2 -0.5,-0.5 -0.6,-0.9 l -1.4,-7 c -0.5,-2.4 0.8,-4.2 2.7,-5.3 0.7,-0.4 1.6,-0.7 2.4,-0.9 0.9,-0.2 1.8,-0.2 2.6,-0.1 2.2,0.3 4,1.5 4.5,3.9 l 1.4,7 c 0.1,0.4 0,0.7 -0.2,1 -0.2,0.3 -0.5,0.5 -0.9,0.6 l -1.2,0.2 0.1,0.5 v 0 z"
   class="st29" />
		<path
   id="path124"
   clip-path="url(#SVGID_6_)"
   d="m 806.9,480.3 -0.2,-1.1 c -0.5,-2.7 -2.7,-4.1 -5.1,-4.4 -0.9,-0.1 -1.9,-0.1 -2.8,0.1 -0.9,0.2 -1.8,0.5 -2.6,1 -2.1,1.2 -3.5,3.3 -3,6 l 0.2,1.1 0.8,-0.2 -0.2,-1.1 c -0.5,-2.3 0.8,-4.1 2.6,-5.1 0.7,-0.4 1.5,-0.7 2.4,-0.9 0.8,-0.2 1.7,-0.2 2.6,-0.1 2.1,0.3 3.9,1.4 4.4,3.7 l 0.2,1.1 z"
   class="st30" />
		<g
   id="g130"
   clip-path="url(#SVGID_6_)"
   class="st21">
			<path
   id="path126"
   d="m 797.1,490.4 0.6,-0.1 c 0.2,0.2 0.4,0.3 0.7,0.2 0.4,-0.1 0.6,-0.4 0.5,-0.8 -0.1,-0.4 -0.4,-0.6 -0.8,-0.5 -0.2,0 -0.4,0.2 -0.5,0.5 l -0.6,0.1 z"
   class="st31" />
			<path
   id="path128"
   d="m 805.8,488.7 -0.6,0.1 c -0.1,0.2 -0.3,0.4 -0.5,0.5 -0.4,0.1 -0.7,-0.2 -0.8,-0.5 -0.1,-0.4 0.2,-0.7 0.5,-0.8 0.2,0 0.5,0 0.7,0.2 l 0.6,-0.1 z"
   class="st31" />
		</g>
		<path
   id="path132"
   clip-path="url(#SVGID_6_)"
   d="m 799.2,474.9 -0.2,-1.2 -0.5,0.1 -0.5,0.1 0.2,1.2 c 0.2,-0.1 0.4,-0.1 0.6,-0.1 0.1,-0.1 0.3,-0.1 0.4,-0.1 z"
   class="st26" />
		<g
   id="g138"
   clip-path="url(#SVGID_6_)"
   class="st21">
			<path
   id="path134"
   d="m 798.2,489.7 c 0.1,0 0.2,-0.1 0.2,-0.2 0,-0.1 -0.1,-0.2 -0.2,-0.2 -0.1,0 -0.2,0.1 -0.2,0.2 -0.1,0.2 0,0.2 0.2,0.2 z"
   class="st32" />
			<path
   id="path136"
   d="m 804.4,488.5 c 0.1,0 0.2,-0.1 0.2,-0.2 0,-0.1 -0.1,-0.2 -0.2,-0.2 -0.1,0 -0.2,0.1 -0.2,0.2 0,0.1 0.1,0.2 0.2,0.2 z"
   class="st32" />
		</g>
		<path
   id="path140"
   clip-path="url(#SVGID_6_)"
   d="m 826.1,486.8 c -0.7,-0.1 -1.2,-0.8 -1.1,-1.6 0.1,-0.7 0.8,-1.2 1.6,-1.1 0.7,0.1 1.2,0.8 1.1,1.6 -0.2,0.7 -0.9,1.2 -1.6,1.1 z"
   class="st23" />
		<g
   id="g146"
   clip-path="url(#SVGID_6_)"
   class="st21">
			<path
   id="path142"
   d="m 805,467.2 c 0,0 -7.4,0.1 -6.2,6.6 l -0.7,0.1 c -1.4,-7.3 6.9,-7.4 6.9,-7.4 z"
   class="st33" />
			<path
   id="path144"
   d="m 819.8,466.5 c 1.2,0 3.6,0.4 5.4,2.6 1.8,2.1 3,6.1 2.1,13.3 l -0.7,-0.1 c 0.9,-7 -0.3,-10.8 -1.9,-12.8 -1.6,-2 -3.7,-2.3 -4.8,-2.3 z"
   class="st33" />
		</g>
	</g>
</g>



</svg>
